<?xml version="1.0" encoding="UTF-8"?>
<svg id="Calque_1" data-name="Calque 1" xmlns="http://www.w3.org/2000/svg" viewBox="0 0 375 375">
  <defs>
    <style>
      .cls-1 {
        fill: #0e6fb3;
      }

      .cls-2 {
        fill: #187cf8;
      }

      .cls-3 {
        fill: #afdbfb;
      }

      .cls-4 {
        fill: #08d8ee;
      }

      .cls-5 {
        fill: #2da157;
      }

      .cls-6 {
        fill: #f3f6fd;
      }
    </style>
  </defs>
  <path class="cls-6" d="M375,0v375H0V0h375ZM228.75,81c-6.25-4.21-14.4-7.03-21.74-8.63-38.79-8.46-76.39,13.71-91.73,49.29-5.71,13.24-7.54,26.72-5.77,41.1,3.37-3.72,5.65-8.18,9.74-11.25,11.59-8.68,21.79-5.24,32.25,3,.28.22,1.23,1.76,3,3,2.07,1.44,1.02,1.17,1.95,2.14,2.08,2.18,2.97,4.16,5.14,1.53.45-.54.26-1.75.51-2.07.11-.14,1.63.91,2.9-.85,2.71-3.75,5.3-6.72,9-9.75,6.25-5.11,11.11-9.01,19.83-7.45,1.74.31,4.02,2.12,5.67,2.95,2.78,1.41,5.33,2.91,8.06,4.39,2.01.56,2.3-1.25,3.19-2.14,1.78-1.77,10.5-13,10.51-14.64.01-2.47-9.64-8.18-8.26-9.36,2.06.18,3.99-.52,6-.75,8.49-.99,17.02-2.02,25.5-3,4.23-.49,8.56-.51,12.75-1.5.57,15.82-1.04,31.45-.75,47.24l-8.26-7.85c-4.16-1.9-3.48.85-3.74,1.11-4.42,4.36-14.4,17.62-19.46,19.15s-10.43-2.06-14.29-4.9c-2.79-2.06-1.62-1.79-3.31-3.8-2.24-2.67-5.18-.25-7.44,1.51-.7.55-.44,1.47-.51,1.53-5.69,5.02-14.62,16.09-21.07,19.05-5.8,2.67-9.18,2.26-14.93-.3-3.89-1.73-5.52-4.84-9-6.75-.34-3.83-1.92-3.99-3.08-7.41-3.41-2.42-11.65,9.99-13.06,12.64-2.49,4.7-5.46,12.18-7.11,17.27-.17.54-1.3,1.28-.77,2.49,6.94,7.07,14.58,12.48,23.46,17.05,42.88,22.08,95.65.5,112.23-43.99,11.62-31.19,3.7-67-21.67-88.79-.03-3.74.02-7.51,0-11.25-5.24.08-10.52-.09-15.75,0ZM234,132c-2.14,6.14,1.13,10.56,7.48,10.88-1.52-1.19-1.1-3.73-1.85-4.95-.43-.69-1.63.08-1.76-.07-.37-.42-1.39-3.88-2.37-5.11,1.17-2.34,2.27-4.02,5.25-3.75.96.95,0,1.7-1.09,2.32-3.25,1.86-1.37,3.68,1.84,2.18v3.74c1.29.97,4.66-4.97,5.25-1.86.34,1.82-4.77,3.7-4.5,6.73.19,2.15,4.98-2.59,5.25-3.15,4.87-9.85-10.68-15.05-13.5-6.97ZM227.85,139.66c-1.23.6-6.31.74-6.6.92-.87.54-4.62,7.85-6.37,9.43-1.64,1.49-4.35,2.81-6.38,1.49,1.76,5.92,8.35-.72,10.49-3.38,2.64-3.28,2.59-8.14,8.99-5.24.51.23,6.18,5.16,6.39,5.64.14.31.87,6.36.76,6.68-.71,2.07-9.37,11.63-11.43,12.62-8.56,4.1-6.77-6.19-10.28-7.48-2.56-.94-6.14.98-7.92,2.81-.36,1.47,9.85,9.49,11.64,10.08,2.34.78-.04-2.46.37-2.99,5.52,5.13,20.39-13.22,21-16.14.07-.32-1.24-.23-1.65-1.41-.66-1.88.39-3.58-.2-4.91-1.03-2.33-7.57-5.19-8.8-8.13ZM196.5,144c-9.75.61-16.75,7.32-23.27,13.85l-10.48,11.64c7.99-1.82,11.98-11.11,18.39-16.47,4.88-4.08,7.83-5.26,13.71-7.33,1.21-.43,2,.39,1.64-1.69ZM137.25,150.75c-20.22.58-21.64,18.04-30.27,31.61-.85,1.34-4.82,5.13-4.81,5.5.01.39,1.19,1.2,1.31,2.29.14,1.25-.89,2.1-.2,3.87.76,1.97,8.07,10.39,9.98,12.63.65.77.74,2.81,2.23,1.83.14-.09-.32-1.82,2.06-2.11,4.61-.56,3.83,1.79,7.09-4.12,5.39-9.79,6.24-18.31,14.47-27.53.67-.75,7.41-5.77,6.39-6.72-9.36,3.02-14.68,14.68-18.64,22.98-.97,2.04-4.53,12.32-5.51,12.86-.78.43-2.6.09-3.81.32-1.41.27-1.76,1.64-3.18.67-.6-.41-8.74-10.68-9-11.36-.42-1.11.32-2.15.31-3.28,0-.81-.67-1.64-.67-2.26,0-.5,1.15-.48,1.48-.99,7.88-12.37,12.28-31.75,28.52-34.69.56-.1.7-.75.75-.75.7-.06,1.56-.06,2.25,0,1.28.12,3.9,1.24,5.73,1.4.84.08,2.68.7,2.51-.64-3.09-1.91-5.86-1.6-8.99-1.51ZM184.5,153.75c-3.22-.08-3.99,10.03,3.39,10.54,11.41.79,12.87-17.62.09-14.19-2.37.64.28,2,.17,3.16s-1.45,1.32-.83,3.25c1.91,5.9,3.92,1.81,5.81,1.74,1.17,3.55-4.66,4.7-7.12,1.51.13-1.31-.12-2.61-1.5-3-.1-.39.02-1.02,0-1.5,1.09-.32,1.09-1.47,0-1.5ZM212.25,157.49c-1.16-2.23-4.57-2.26-6.75-2.24.05,3.47,4.51,2,6.75,2.24ZM204.75,156.75c-1.49-.02-2.88.75-4.11,1.5-7.8,4.76-21.12,23.04-29.44,24.61-7.17,1.35-3.69-4.16-5.01-8.16-1.83-5.54-14.9-5.53-14.58-1.97.23,2.53,10.75,15.48,13.04,15.49,1.97-.86-.16-3.25.37-3.73.7-.63,4.8.7,6.2.58,6.97-.6,22.53-18.34,28.29-23.47.73-.65,6.41-3.78,5.25-4.86ZM123.11,163.62c-.16.1-1.4,3.04-1.46,3.45-.5,3.12,1,5.8,3.93,6.98,4.05,1.64,3.36.04,5.75-1.11,2.12-1.02,4.16-.74,4.99-4,2.13-8.41-5.94-12-11.81-6.56l4.5.37c-2.2,4.05,3.76,2.77,4.45,3.81.12.18.16,4.26-.03,4.37-.33.18-1.22-.07-1.9.34-.14.09-2.19,3.08-2.53.85-.4-2.63,1.63-1.08,1.5-2.98-.95-2.01-5.48.95-5.85-3.17-.1-1.15,1.56-4.25-1.54-2.34ZM157.5,165c-1.85.02-9.53-.17-10.5.76-2.44,2.32,5.31.86,6,.74l8.25.75c.84-1.77-3.01-2.28-3.75-2.25ZM271.5,249h-10.5c.21,1.72-.36,3.88.02,5.49.14.6,1.36.2,1.54,1.59.44,3.37.44,14.73,0,18.1-.18,1.39-1.4.98-1.54,1.59-.37,1.6.19,3.77-.02,5.49h12.75c-.3-1.6.41-4.25.05-5.59-.23-.86-2.3-.29-2.3-.41v-26.25ZM285.75,249h-10.5c.21,1.72-.36,3.88.02,5.49.14.6,1.36.2,1.54,1.59.44,3.37.44,14.73,0,18.1-.18,1.39-1.4.98-1.54,1.59-.37,1.6.19,3.77-.02,5.49h12.75c-.3-1.6.41-4.25.05-5.59-.23-.86-2.3-.29-2.3-.41v-26.25ZM90.75,262.5v-11.25c-1.26.2-7.24-.28-7.5,0-.32.34.55,2.66-.37,3-6.54-7.77-21.15-3.27-18.96,7.7,1.49,7.45,11.83,6.58,15.88,9.5,1.37.99.29,2.73-1.43,3.05-6.43,1.22-6.47-3.47-7.65-3.76-.71-.17-6.73-.24-6.97,0-.36.38-.49,9.08-.75,10.51,2.19-.4,5.99.54,7.85.05,1.02-.27-.42-2.94,1.52-2.29.84.28,2.4,2.18,4.11,2.64,12.37,3.29,21.59-9.51,10.31-16.31-2.68-1.61-8.99-2.84-10.7-4.3-3.78-3.24,2.44-5.29,5.33-2.33,1.08,1.11,1.05,3.25,2.31,3.69,1.77.62,5.01-.22,7.03.1ZM204.75,251.25h-15c.38,3.64-1.72,6.86,2.97,6.03,1.06,3,4.42,23.1,5.35,23.9.4.35,10.08.28,10.51-.36,1.33-1.98,1.97-9.58,2.92-12.31,1.5.27,1.19,1.62,1.51,2.6.56,1.72,1.91,9.73,2.31,10.07.48.41,10.67-.4,11.1-.75.87-.72,4.46-19.2,5.46-21.92.27-1.46,2.69-.86,2.92-1.7.09-.3.23-5.55-.05-5.55h-12.75c.15,1.48-.36,3.43.11,4.79.36,1.05,2.08.98,2.2,1.69.31,1.84-2.25,8.31-2.31,10.76l-3.77-17.21-9.28-.08-4.56,18.8c.27-3.42-2.47-9.44-1.91-12.37.16-.87,2.16.12,2.34-.8.3-1.55-.3-3.88-.05-5.59ZM186,253.5c-.37-.37-7.02,1.48-7.52,1.85-1.38,1.04-.31,3.57-.82,4.1-.31.33-2.05-.39-2.21.46-.14.71-.06,5.35.14,5.54.32.32,2.05-.4,2.22.46.77,3.87-1.96,14.95,4.09,16.07,2.24.42,8.12.8,8.61-1.85,1.18-6.38-1.77-3.08-3.8-4.45-.91-.62-1.07-9.82-.7-10.18.29-.29,4.21.3,4.51,0,.21-.21.21-5.8,0-6.01-.3-.29-4.21.3-4.51,0-.27-.27.2-4.9,0-6.01ZM322.5,253.5c-.37-.39-5.9,1.37-6.71,1.9-2.1,1.37-1.14,3.47-1.67,4-.38.38-2-.31-2.16.51-.14.7-.06,5.35.14,5.54.32.32,2.04-.4,2.22.46.68,3.39-.68,12.42,2.22,14.94,1.89,1.63,9.92,2.31,10.48-.72,1.18-6.42-1.85-3.13-3.65-4.23-.93-.57-1.23-10.03-.86-10.4.3-.29,4.21.3,4.51,0,.21-.21.21-5.8,0-6.01-.3-.29-4.21.3-4.51,0-.27-.26.2-4.9,0-6ZM154.59,275.2c-.37-.36.16-7.95-.58-10.33-2.07-6.65-10.92-7.45-16.6-5.59-4.78,1.56-4.19,2.23-3.14,6.97.75.67,9.2-3.74,11.23.39.93,1.9-3.82.27-4.86.3-12.15.32-11.25,17.3,2.2,15.03,1.13-.19,1.93-1.32,2.99-1.39,1.63-.1,10.02,1.57,10.92.68-.26-1.7.35-4.06.05-5.59-.17-.85-1.9-.14-2.22-.46ZM257.42,275.09c-.54-.87-.03-7.09-.97-9.93-1.65-5.03-6.51-7.03-11.47-6.88-1.35.04-9.01,2.12-9.48,2.76-.16.22,1.31,5.03,1.53,5.18.89.65,11.36-4.59,10.45,1.53-12.39-5.68-18.85,14.06-4.87,14.31,3.37.06,5.48-2.06,5.99-2.06.4,0,1.51,1.2,2.97,1.3,2.6.18,5.31-.21,7.92-.04-.14-1.48.35-3.43-.12-4.79-.34-.98-1.73-.99-1.96-1.37ZM108,281.25c3.73-.05,7.55-.22,11.24,0-.16-1.44.37-3.51-.08-4.79-.54-1.51-2.71-.78-2.96-1.67-.32-1.13.12-8.8.85-9.26,1.23-.77,2.95.55,2.95,1.84v13.88h11.25c-.25-1.71.35-4.04.05-5.59-.18-.9-2.18.08-2.35-.82-1.1-5.63,2.54-15.45-7.81-15.69-4.06-.09-4.88,2.27-6.11,2.56-.65.15-8.65-6.31-11.9.03-1.49-3.94-5.85-1.73-9.38-2.23.79,1.79-.38,3.67,0,5.48.13.6,1.38.18,1.56,1.59.21,1.58.21,6.02,0,7.6-.18,1.39-1.4.99-1.54,1.59-.37,1.6.19,3.77-.02,5.49,3.63,0,7.29-.01,10.93.02.96,0,1.72-.77,1.82-.77.39,0,1.16.75,1.5.75ZM158.25,281.25h12.75c-.15-1.48.36-3.42-.11-4.79-.35-1.02-1.95-.95-2.15-1.73-2.34-8.99,4.75-7.09,5.69-8.42.54-.76.51-5.29.33-6.45-.32-2.08-2.9-1.14-4.31-.53-1.1.48-1.95,1.62-2.82,2.43-1.4-3.89-6.14-1.76-9.38-2.25.21,1.72-.35,3.89.02,5.49.14.6,1.36.2,1.54,1.59.21,1.58.21,6.02,0,7.6-.18,1.39-1.4.99-1.54,1.59-.37,1.61.19,3.77-.02,5.49ZM297.75,273h12.38c.53,0,1-1.25,1.12-1.87,2.78-14.72-21.62-17.14-22.53-1.53-.77,13.17,13.29,15.37,22.53,9.39.62-.89-2.65-4.16-3.53-4.39-1.86-.48-9.06,4.65-9.97-1.59ZM207,291c-7.36-1.04-4.08,5.87-4.49,10.5h2.24c.37-.35-.34-4.53-.05-5.6.27-.96,2,.08,2.31-.79.63-1.78-4.33-.8-2.26-2.62.47-.41,2.88,1.02,2.25-1.5ZM115.51,294.01c-.95-1.37-7.6-.52-5.66,3.01.66,1.2,3,1.47,3.41,2.97-2.69,0-4.25-2.32-3.75,1.5l5.69-.7c-.44-1.38.52-6.5.32-6.79ZM126,301.5c1.73-10.83-7.42-11.02-7.18-.71,1.03,1.38,5.43.47,7.18.71ZM132.01,297c-.22-.22-.26-4.39-3.01-3.75,1.18,11.06,6.44,11.18,7.49,0-2.51-.85-2.8,5.45-4.49,3.75ZM146.25,298.5c1.21-6.97-8.15-7.03-6.74.35.65,3.41,4.02,2.68,6.74,2.65v-2.24c-.26-.29-4.01,1.97-4.5-.74h4.5ZM158.26,297.75c-.08-1.79-.63-4.64-3-4.5-.85,2.56,2.29,6.12,2.27,7.91-.02,1.37-3.85,2.55-2.27,4.08,3.09,2.98,7.45-9.02,7.49-11.24-3.35-.84-2.37,2.78-4.49,3.74ZM168.55,293.38c-4.01.58-3.74,7.09-.77,7.98,7.64,2.29,6.92-8.87.77-7.98ZM193.49,293.25c-.18-.2-3.92,1.22-5.24,0v8.25s2.24,0,2.24,0c-2.17-3.31,4.35-6.8,3-8.25ZM212.25,293.24h-3.04s.01,8.26.01,8.26h3.04s-.01-8.26-.01-8.26ZM223.5,301.5c.24-.24.16-5.88-.36-6.75-1.27-2.13-5.04-.39-7.13-1.49v8.25s2.24,0,2.24,0c.22-.22-.37-5.16,1.14-6.01,2.38.02.37,3.67,1.48,5.27.58.83,2.35,1.02,2.64.73ZM234,301.5c-.17-3.01,1.23-7.56-2.8-8.12-2.2-.3-5.14,1.59-2.08,2.11.94.16,2.78-.65,2.63.74-3.59.54-5.13,1.3-4.5,5.26h6.76ZM245.25,301.5c.5-7.34.08-9.11-7.49-7.5.53,3.65-2.01,8.71,2.99,7.49-1.06-8.49,2.82-7.86,2.26,0h2.24ZM255,295.5c.22-1.35-.6-2.14-1.89-2.28-6.05-.66-6.3,11.06,1.89,8.28v-2.25c-5.14,2.31-5.4-4.6,0-3.76ZM264.57,294.19c-5.19-5.25-11.87,9.97.18,7.3l-3.74-2.62,4.5-.37c.02-1.26-.03-3.4-.93-4.31ZM179.25,294c-4.57-2.49-3.16,6.77-2.14,7.4s5.08-.21,6.65.11v-7.51s-2.25,0-2.25,0c.56,7.86-3.32,8.49-2.26,0Z"/>
  <path class="cls-3" d="M228.75,81c-2.68.05-5.43-.22-8.1.16-1.77,2.16-3.56,4.5-5.4,6.59-1.43,1.63-4.63,2.79-4.54,5.59l.04,52.91c-.9.89-1.18,2.7-3.19,2.14-2.73-1.48-5.28-2.98-8.06-4.39v-24h-24c-.06,0,.13,1.02-.25,1.22-2.32,1.23-3.55,1.81-5.75,3.28-1.64,1.1-5.66,3.04-6,4.87.22,8.75-.29,17.54,0,26.29.05,1.44-.76,3.01,1.5,2.59-1.27,1.76-2.79.71-2.9.85-.25.33-.06,1.53-.51,2.07-2.17,2.62-3.07.65-5.14-1.53-.93-.97.12-.7-1.95-2.14v-21h-24c-.25,0-1.7,2.88-3,3.75-1.56,1.04-6.86,2.82-7.87,4.5s-.12,4.82-.38,6.75c-4.09,3.07-6.37,7.53-9.74,11.25-1.77-14.37.07-27.86,5.77-41.1,15.34-35.58,52.94-57.74,91.73-49.29,7.34,1.6,15.49,4.42,21.74,8.63Z"/>
  <path class="cls-3" d="M244.5,92.25c25.37,21.8,33.29,57.61,21.67,88.79-16.58,44.48-69.35,66.07-112.23,43.99-8.88-4.57-16.52-9.97-23.46-17.05-.53-1.21.59-1.95.77-2.49,7.11,6.54,14.16,13.47,23.24,17.25-.82-12.85,1.13-27.07,0-39.75,3.48,1.91,5.11,5.02,9,6.75l.1,36.27c.45,1.33,3.75,1.89,5.15,2.35,2.35.77,9.52,2.63,11.62,2.63h19.12v-60c.07-.06-.2-.98.51-1.53,2.25-1.77,5.19-4.18,7.44-1.51,1.69,2.01.52,1.74,3.31,3.8v57c12.32-4.01,25.02-9.23,33.6-19.27l.15-51.97c.26-.25-.42-3,3.74-1.11l8.26,7.85c-.29-15.79,1.32-31.43.75-47.24-4.19.99-8.52,1.01-12.75,1.5-.05-8.74.07-17.51,0-26.25Z"/>
  <path class="cls-2" d="M244.5,157.5l-.15,51.97c-8.58,10.05-21.28,15.27-33.59,19.27v-57c3.85,2.84,9.4,6.38,14.28,4.9s15.04-14.79,19.46-19.15Z"/>
  <path class="cls-2" d="M199.5,171v60h-19.12c-2.1,0-9.27-1.86-11.62-2.63-1.4-.46-4.7-1.02-5.15-2.35l-.1-36.27c5.75,2.56,9.12,2.97,14.93.3,6.45-2.97,15.39-14.03,21.07-19.05Z"/>
  <path class="cls-4" d="M228.75,81c5.24-.09,10.52.07,15.75,0,.02,3.74-.04,7.51,0,11.25.07,8.74-.05,17.51,0,26.25-8.48.98-17.01,2.01-25.5,3l.04-32.57-3.79-1.18c1.84-2.09,3.63-4.43,5.4-6.59,2.66-.38,5.41-.11,8.1-.16Z"/>
  <path class="cls-1" d="M204.75,251.25c-.25,1.71.35,4.04.05,5.59-.18.92-2.18-.07-2.34.8-.55,2.93,2.18,8.95,1.91,12.37l4.56-18.8,9.28.08,3.77,17.21c.07-2.45,2.62-8.92,2.31-10.76-.12-.71-1.84-.65-2.2-1.69-.47-1.36.05-3.31-.11-4.79h12.75c.28,0,.14,5.24.05,5.55-.24.84-2.66.24-2.92,1.7-.99,2.72-4.58,21.21-5.46,21.92-.43.35-10.61,1.16-11.1.75-.39-.33-1.75-8.34-2.31-10.07-.32-.98-.01-2.34-1.51-2.6-.95,2.73-1.59,10.34-2.92,12.31-.43.64-10.11.71-10.51.36-.93-.8-4.29-20.9-5.35-23.9-4.69.83-2.6-2.38-2.97-6.03h15Z"/>
  <path class="cls-2" d="M131.25,205.5c1.65-5.08,4.62-12.57,7.11-17.27,1.41-2.66,9.65-15.06,13.06-12.64,1.17,3.42,2.74,3.58,3.08,7.41,1.12,12.68-.83,26.9,0,39.75-9.08-3.78-16.13-10.71-23.24-17.25Z"/>
  <path class="cls-1" d="M90.75,262.5c-2.02-.31-5.26.52-7.03-.1-1.26-.44-1.23-2.58-2.31-3.69-2.88-2.96-9.11-.91-5.33,2.33,1.71,1.46,8.02,2.69,10.7,4.3,11.28,6.8,2.06,19.59-10.31,16.31-1.72-.46-3.28-2.36-4.11-2.64-1.94-.65-.5,2.02-1.52,2.29-1.86.49-5.66-.45-7.85-.05.26-1.43.38-10.13.75-10.51.24-.25,6.26-.18,6.97,0,1.18.29,1.22,4.99,7.65,3.76,1.72-.33,2.8-2.07,1.43-3.05-4.05-2.91-14.4-2.05-15.88-9.5-2.19-10.97,12.42-15.48,18.96-7.7.92-.35.04-2.67.37-3,.26-.27,6.25.21,7.5,0v11.25Z"/>
  <path class="cls-1" d="M106.5,280.5c-.1,0-.86.78-1.82.77-3.64-.03-7.3-.03-10.93-.02.21-1.72-.35-3.89.02-5.49.14-.6,1.36-.2,1.54-1.59.2-1.58.21-6.02,0-7.6-.18-1.4-1.43-.99-1.56-1.59-.38-1.82.79-3.69,0-5.48,3.53.5,7.89-1.71,9.38,2.23,3.25-6.35,11.25.12,11.9-.03,1.23-.29,2.05-2.65,6.11-2.56,10.35.23,6.71,10.06,7.81,15.69.18.9,2.18-.08,2.35.82.3,1.55-.31,3.88-.05,5.59h-11.25v-13.88c0-1.28-1.72-2.61-2.95-1.84-.73.46-1.17,8.13-.85,9.26.25.89,2.42.15,2.96,1.67.45,1.28-.08,3.36.08,4.79-3.69-.22-7.51-.05-11.24,0-.29-2.53.73-14.69-.86-15.64-.76-.46-2.61.06-3.64-.11v10.5c4.23-.65,2.88,1.01,3,4.5Z"/>
  <path class="cls-4" d="M169.5,124.5c2.2-1.47,3.42-2.05,5.75-3.28.38-.2.19-1.22.25-1.22h24v24c-1.65-.84-3.93-2.65-5.67-2.95-8.72-1.55-13.58,2.35-19.83,7.45-2.26.42-1.45-1.15-1.5-2.59-.1-2.93.7-19.2,0-19.91-.46-.48-3.65,1.2-3.01-1.5ZM196.5,123h-18c.24,1.37-.33,8.7,0,8.99.24.21,1.72-.24,2.42.03.76.29.31,1.36,1.65,1.54,4.18.54,9.65.02,13.93-.06v-10.5Z"/>
  <path class="cls-1" d="M154.59,275.2c.32.32,2.05-.4,2.22.46.3,1.54-.3,3.89-.05,5.59-.9.9-9.29-.77-10.92-.68-1.07.06-1.86,1.2-2.99,1.39-13.46,2.27-14.36-14.71-2.2-15.03,1.04-.03,5.79,1.6,4.86-.3-2.03-4.13-10.48.28-11.23-.39-1.04-4.74-1.64-5.4,3.14-6.97,5.68-1.86,14.53-1.06,16.6,5.59.74,2.38.22,9.97.58,10.33ZM141.1,272.35c-1.65,1.05-.17,5.62,2.89,4.05,3.79-1.94-.17-5.79-2.89-4.05Z"/>
  <path class="cls-1" d="M257.42,275.09c.23.37,1.63.39,1.96,1.37.47,1.36-.03,3.31.12,4.79-2.61-.17-5.32.22-7.92.04-1.46-.1-2.56-1.3-2.97-1.3-.51,0-2.62,2.12-5.99,2.06-13.98-.25-7.52-19.99,4.87-14.31.91-6.12-9.56-.88-10.45-1.53-.22-.16-1.69-4.97-1.53-5.18.47-.63,8.13-2.71,9.48-2.76,4.96-.15,9.82,1.86,11.47,6.88.93,2.84.43,9.06.97,9.93ZM244.23,272.34c-2.53.83-1.45,5.98,2.52,4.04,2.98-1.46,1.38-5.32-2.52-4.04Z"/>
  <path class="cls-2" d="M215.25,87.75l3.79,1.18-.04,32.57c-2,.23-3.94.93-6,.75-1.38,1.18,8.27,6.89,8.26,9.36,0,1.64-8.73,12.87-10.51,14.64l-.04-52.91c-.09-2.8,3.1-3.96,4.54-5.59Z"/>
  <path class="cls-1" d="M297.75,273c.91,6.25,8.11,1.11,9.97,1.59.88.23,4.15,3.5,3.53,4.39-9.24,5.99-23.3,3.79-22.53-9.39.91-15.62,25.31-13.19,22.53,1.53-.12.62-.59,1.87-1.12,1.87h-12.38ZM303.75,268.5c-.19-5.26-5-4.73-6.74-.37l6.74.37Z"/>
  <path class="cls-1" d="M271.5,249v26.25c0,.12,2.07-.45,2.3.41.36,1.34-.35,3.99-.05,5.59h-12.75c.21-1.72-.36-3.88.02-5.49.14-.6,1.36-.2,1.54-1.59.44-3.37.44-14.73,0-18.1-.18-1.39-1.4-.98-1.54-1.59-.37-1.6.19-3.77-.02-5.49h10.5Z"/>
  <path class="cls-1" d="M285.75,249v26.25c0,.12,2.07-.45,2.3.41.36,1.34-.35,3.99-.05,5.59h-12.75c.21-1.72-.36-3.88.02-5.49.14-.6,1.36-.2,1.54-1.59.44-3.37.44-14.73,0-18.1-.18-1.39-1.4-.98-1.54-1.59-.37-1.6.19-3.77-.02-5.49h10.5Z"/>
  <path class="cls-1" d="M186,253.5c.2,1.11-.27,5.74,0,6.01.3.29,4.21-.3,4.51,0,.21.21.21,5.8,0,6.01-.3.29-4.21-.3-4.51,0-.37.36-.21,9.56.7,10.18,2.03,1.37,4.98-1.93,3.8,4.45-.49,2.66-6.36,2.27-8.61,1.85-6.05-1.12-3.33-12.2-4.09-16.07-.17-.86-1.9-.14-2.22-.46-.2-.2-.28-4.83-.14-5.54.17-.84,1.9-.13,2.21-.46.51-.53-.56-3.06.82-4.1.5-.38,7.15-2.22,7.52-1.85Z"/>
  <path class="cls-1" d="M322.5,253.5c.2,1.1-.27,5.74,0,6,.3.29,4.21-.3,4.51,0,.21.21.21,5.8,0,6.01-.3.29-4.21-.3-4.51,0-.37.37-.07,9.83.86,10.4,1.8,1.1,4.83-2.19,3.65,4.23-.56,3.03-8.59,2.36-10.48.72-2.91-2.51-1.54-11.55-2.22-14.94-.17-.85-1.9-.14-2.22-.46-.2-.19-.28-4.84-.14-5.54.17-.81,1.78-.12,2.16-.51.53-.54-.43-2.63,1.67-4,.81-.53,6.35-2.29,6.71-1.9Z"/>
  <path class="cls-1" d="M158.25,281.25c.21-1.72-.35-3.88.02-5.49.14-.6,1.36-.2,1.54-1.59.21-1.58.21-6.02,0-7.6-.18-1.39-1.4-.99-1.54-1.59-.37-1.6.19-3.77-.02-5.49,3.24.49,7.98-1.64,9.38,2.25.87-.81,1.72-1.95,2.82-2.43,1.41-.61,3.99-1.55,4.31.53.18,1.17.21,5.69-.33,6.45-.94,1.33-8.03-.57-5.69,8.42.21.79,1.8.72,2.15,1.73.47,1.37-.04,3.3.11,4.79h-12.75Z"/>
  <path class="cls-5" d="M137.25,150.75l.75.75c-.69-.06-1.55-.06-2.25,0l-.75.75c-16.25,2.95-20.64,22.32-28.52,34.69-.33.52-1.49.49-1.48.99,0,.62.67,1.45.67,2.26.01,1.13-.73,2.17-.31,3.28.26.68,8.4,10.95,9,11.36,1.42.97,1.78-.4,3.18-.67,1.21-.23,3.03.11,3.81-.32.98-.54,4.54-10.82,5.51-12.86,3.96-8.3,9.28-19.96,18.64-22.98,1.01.95-5.73,5.98-6.39,6.72-8.23,9.22-9.08,17.74-14.47,27.53-3.26,5.91-2.47,3.56-7.09,4.12-2.38.29-1.92,2.02-2.06,2.11-1.49.98-1.57-1.07-2.23-1.83-1.91-2.23-9.22-10.65-9.98-12.63-.69-1.77.35-2.62.2-3.87-.12-1.1-1.3-1.9-1.31-2.29-.01-.37,3.96-4.16,4.81-5.5,8.62-13.57,10.04-31.03,30.27-31.61Z"/>
  <path class="cls-5" d="M204.75,156.75c1.16,1.08-4.52,4.21-5.25,4.86-5.76,5.13-21.32,22.87-28.29,23.47-1.4.12-5.5-1.22-6.2-.58-.54.48,1.6,2.87-.37,3.73-2.29-.01-12.82-12.96-13.04-15.49-.32-3.57,12.76-3.57,14.58,1.97,1.32,4-2.15,9.52,5.01,8.16,8.33-1.57,21.64-19.85,29.44-24.61,1.23-.75,2.62-1.52,4.11-1.5Z"/>
  <path class="cls-2" d="M169.5,124.5c-.65,2.7,2.55,1.02,3.01,1.5.69.72-.1,16.98,0,19.91.05,1.44-.76,3.01,1.5,2.59-3.7,3.03-6.29,6-9,9.75-2.26.42-1.45-1.15-1.5-2.59-.29-8.74.22-17.54,0-26.29.35-1.83,4.36-3.77,6-4.87Z"/>
  <path class="cls-2" d="M127.5,140.25c.52,4.35,1.32,6.11,6,5.25-.06-1.16-.34-6,1.12-6h16.88v15c-10.46-8.24-20.66-11.68-32.25-3,.26-1.93-.6-5.12.38-6.75s6.31-3.46,7.87-4.5Z"/>
  <path class="cls-5" d="M227.85,139.66c1.23,2.94,7.78,5.8,8.8,8.13.59,1.34-.46,3.04.2,4.91.41,1.18,1.72,1.09,1.65,1.41-.6,2.92-15.48,21.27-21,16.14-.41.52,1.97,3.76-.37,2.99-1.79-.59-12-8.61-11.64-10.08,1.79-1.82,5.36-3.75,7.92-2.81,3.51,1.29,1.72,11.57,10.28,7.48,2.06-.99,10.72-10.55,11.43-12.62.11-.32-.62-6.37-.76-6.68-.21-.48-5.88-5.41-6.39-5.64-6.4-2.9-6.35,1.96-8.99,5.24-2.14,2.66-8.74,9.29-10.49,3.38,2.03,1.32,4.73,0,6.38-1.49,1.75-1.58,5.5-8.89,6.37-9.43.29-.18,5.37-.32,6.6-.92Z"/>
  <path class="cls-4" d="M127.5,140.25c1.3-.87,2.75-3.75,3-3.75h24v21c-1.77-1.24-2.72-2.78-3-3v-15h-16.88c-1.46,0-1.19,4.85-1.12,6-4.69.86-5.48-.91-6-5.25Z"/>
  <path class="cls-5" d="M186,159.75c2.46,3.2,8.28,2.05,7.12-1.51-1.89.07-3.9,4.17-5.81-1.74-.62-1.92.72-2.11.83-3.25s-2.54-2.52-.17-3.16c12.78-3.43,11.32,14.98-.09,14.19-7.38-.51-6.61-10.62-3.39-10.54.01.5-.02,1,0,1.5s-.1,1.11,0,1.5c.25,1.04.84,2.14,1.5,3Z"/>
  <path class="cls-5" d="M196.5,144c.36,2.08-.43,1.27-1.64,1.69-5.87,2.06-8.82,3.25-13.71,7.33-6.42,5.36-10.4,14.66-18.39,16.47l10.48-11.64c6.52-6.53,13.52-13.24,23.27-13.85Z"/>
  <path class="cls-3" d="M234,132c2.82-8.08,18.37-2.88,13.5,6.97-.28.56-5.07,5.29-5.25,3.15-.26-3.03,4.84-4.91,4.5-6.73-.59-3.11-3.96,2.83-5.24,1.86v-3.74c-3.22,1.5-5.09-.31-1.85-2.18,1.09-.62,2.04-1.38,1.09-2.32-2.97-.28-4.07,1.4-5.25,3.75-.45-.56-.72-.82-1.5-.75Z"/>
  <path class="cls-5" d="M123.11,163.62c3.1-1.9,1.43,1.2,1.54,2.34.37,4.13,4.89,1.16,5.85,3.17.14,1.9-1.89.35-1.5,2.98.34,2.23,2.39-.76,2.53-.85.68-.42,1.57-.16,1.9-.34.19-.11.15-4.18.03-4.37-.68-1.04-6.65.24-4.45-3.81l-4.5-.37c5.87-5.44,13.93-1.85,11.81,6.56-.83,3.26-2.87,2.98-4.99,4-2.39,1.15-1.7,2.75-5.75,1.11-2.93-1.19-4.43-3.87-3.93-6.98.06-.4,1.3-3.35,1.46-3.45Z"/>
  <path class="cls-3" d="M106.5,280.5c-.12-3.49,1.23-5.15-3-4.5v-10.5c1.03.16,2.88-.36,3.64.11,1.58.96.56,13.12.86,15.64-.34,0-1.11-.75-1.5-.75Z"/>
  <path class="cls-5" d="M126,301.5c-1.75-.24-6.15.67-7.18-.71-.24-10.31,8.91-10.11,7.18.71ZM123,295.51c-3.12-.37-3.12,1.11,0,.73v-.73Z"/>
  <path class="cls-5" d="M264.57,294.19c.9.91.95,3.05.93,4.31l-4.5.37,3.74,2.62c-12.05,2.67-5.37-12.55-.18-7.3Z"/>
  <path class="cls-5" d="M158.26,297.75c2.12-.97,1.14-4.59,4.49-3.74-.04,2.23-4.4,14.22-7.49,11.24-1.58-1.53,2.25-2.71,2.27-4.08.02-1.8-3.11-5.36-2.27-7.91,2.38-.14,2.93,2.71,3,4.5Z"/>
  <path class="cls-5" d="M223.5,301.5c-.29.29-2.06.1-2.64-.73-1.11-1.6.9-5.25-1.48-5.27-1.5.85-.92,5.79-1.14,6.01h-2.24s0-8.25,0-8.25c2.09,1.11,5.86-.64,7.13,1.49.52.87.6,6.51.36,6.75Z"/>
  <path class="cls-5" d="M146.25,298.5h-4.5c.5,2.73,4.25.46,4.49.75v2.24c-2.71.03-6.07.76-6.73-2.65-1.42-7.38,7.95-7.32,6.74-.35Z"/>
  <path class="cls-5" d="M245.25,301.5h-2.24c.56-7.86-3.32-8.49-2.26,0-5,1.22-2.46-3.84-2.99-7.49,7.57-1.61,7.99.15,7.49,7.5Z"/>
  <path class="cls-5" d="M234,301.5h-6.76c-.63-3.97.91-4.73,4.5-5.26.16-1.39-1.68-.58-2.63-.74-3.06-.52-.12-2.42,2.08-2.11,4.03.56,2.63,5.11,2.8,8.12Z"/>
  <path class="cls-5" d="M179.25,294c-1.06,8.49,2.82,7.86,2.26,0h2.24s0,7.51,0,7.51c-1.57-.32-5.64.52-6.65-.11s-2.43-9.89,2.14-7.4Z"/>
  <path class="cls-5" d="M235.5,132.75c.98,1.23,2,4.7,2.37,5.11.13.15,1.34-.62,1.76.07.76,1.22.33,3.77,1.85,4.95-6.36-.32-9.62-4.75-7.48-10.88.78-.07,1.05.19,1.5.75Z"/>
  <path class="cls-5" d="M168.55,293.38c6.15-.89,6.87,10.27-.77,7.98-2.97-.89-3.24-7.4.77-7.98ZM168,295.5c-.39.39-.2,4.99,1.86,4.49,2.88-.69.1-6.44-1.86-4.49Z"/>
  <path class="cls-5" d="M132.01,297c1.69,1.7,1.98-4.59,4.49-3.75-1.05,11.18-6.31,11.06-7.49,0,2.75-.64,2.79,3.53,3.01,3.75Z"/>
  <path class="cls-5" d="M115.51,294.01c.2.28-.76,5.4-.32,6.79l-5.69.7c-.5-3.83,1.06-1.51,3.75-1.5-.4-1.51-2.75-1.78-3.41-2.97-1.93-3.53,4.72-4.38,5.66-3.01ZM114,295.51c-1.05-.54-2,.47-1.49.73,1.05.54,2-.47,1.49-.73Z"/>
  <path class="cls-5" d="M255,295.5c-5.4-.85-5.14,6.06,0,3.76v2.25c-8.18,2.78-7.93-8.94-1.88-8.28,1.28.14,2.11.93,1.89,2.28Z"/>
  <path class="cls-5" d="M207,291c.63,2.52-1.78,1.09-2.25,1.5-2.07,1.82,2.89.84,2.26,2.62-.31.87-2.04-.17-2.31.79-.3,1.07.41,5.25.05,5.6h-2.24c.42-4.63-2.87-11.54,4.49-10.5Z"/>
  <path class="cls-5" d="M193.49,293.25c1.35,1.45-5.17,4.94-3,8.25h-2.24s0-8.25,0-8.25c1.32,1.22,5.06-.2,5.24,0Z"/>
  <rect class="cls-5" x="209.21" y="293.25" width="3.04" height="8.26" transform="translate(-.41 .29) rotate(-.08)"/>
  <path class="cls-3" d="M137.25,150.75c3.13-.09,5.9-.4,8.99,1.51.17,1.34-1.68.72-2.51.64-1.83-.17-4.45-1.29-5.73-1.4l-.75-.75Z"/>
  <path class="cls-5" d="M157.5,165c-.7.03-3.59,1.34-4.5,1.5-.69.12-8.45,1.57-6-.74.97-.92,8.65-.74,10.5-.76Z"/>
  <path class="cls-5" d="M212.25,157.49c-2.23-.24-6.7,1.24-6.75-2.24,2.18-.02,5.58,0,6.75,2.24Z"/>
  <path class="cls-3" d="M157.5,165c.74-.03,4.59.48,3.75,2.25l-8.25-.75c.91-.16,3.8-1.47,4.5-1.5Z"/>
  <path class="cls-3" d="M186,159.75c-.66-.86-1.25-1.96-1.5-3,1.38.39,1.63,1.69,1.5,3Z"/>
  <path class="cls-3" d="M184.5,155.25c-.02-.5.01-1,0-1.5,1.09.03,1.09,1.18,0,1.5Z"/>
  <path class="cls-3" d="M135,152.25l.75-.75c-.05,0-.19.65-.75.75Z"/>
  <path class="cls-2" d="M196.5,123v10.5c-4.28.08-9.75.6-13.93.06-1.34-.17-.89-1.25-1.65-1.54-.7-.27-2.18.18-2.42-.03-.34-.29.23-7.63,0-8.99h18Z"/>
  <path class="cls-3" d="M141.1,272.35c2.72-1.73,6.68,2.12,2.89,4.05-3.06,1.57-4.55-3-2.89-4.05Z"/>
  <path class="cls-3" d="M244.23,272.34c3.9-1.29,5.5,2.57,2.52,4.04-3.97,1.95-5.05-3.2-2.52-4.04Z"/>
  <path class="cls-6" d="M303.75,268.5l-6.74-.37c1.74-4.37,6.55-4.9,6.74.37Z"/>
  <path class="cls-6" d="M123,295.51v.73c-3.12.37-3.12-1.11,0-.73Z"/>
  <path class="cls-6" d="M168,295.5c1.96-1.95,4.74,3.8,1.86,4.49-2.06.49-2.25-4.11-1.86-4.49Z"/>
  <path class="cls-6" d="M114,295.51c.51.26-.44,1.27-1.49.73-.51-.26.44-1.27,1.49-.73Z"/>
</svg>